<?xml version="1.0" standalone="no"?>
<!DOCTYPE svg PUBLIC "-//W3C//DTD SVG 20010904//EN"
 "http://www.w3.org/TR/2001/REC-SVG-20010904/DTD/svg10.dtd">
<svg version="1.0" xmlns="http://www.w3.org/2000/svg"
 width="1080.000000pt" height="1080.000000pt" viewBox="0 0 1080.000000 1080.000000"
 preserveAspectRatio="xMidYMid meet">
<metadata>
Created by potrace 1.14, written by Peter Selinger 2001-2017
</metadata>
<g transform="translate(0.000000,1080.000000) scale(0.100000,-0.100000)"
fill="#000000" stroke="none">
<path d="M220 5425 l0 -5175 49 0 c28 0 53 5 57 11 6 11 49 148 79 257 13 46
15 663 15 4967 l0 4915 3419 0 3419 0 119 86 c65 47 125 92 133 100 12 12
-501 14 -3638 14 l-3652 0 0 -5175z"/>
<path d="M7423 10502 l-133 -97 220 -3 219 -2 63 46 c73 54 117 78 77 42 -14
-13 -46 -38 -69 -55 -35 -26 -39 -33 -23 -33 12 0 24 -8 27 -17 9 -22 -27 -50
-74 -59 -60 -10 -70 -15 -70 -34 0 -11 11 -22 28 -28 26 -10 27 -11 5 -17 -15
-5 -23 -15 -23 -30 0 -17 -14 -29 -67 -55 -78 -39 -179 -97 -208 -119 -19 -16
-19 -16 0 14 10 17 24 35 30 40 6 6 35 40 63 78 l52 67 -500 0 -500 0 0 -1602
0 -1603 43 76 c115 201 313 443 620 757 120 122 129 135 123 162 l-6 30 26
-16 25 -17 -28 -31 c-15 -17 -73 -78 -129 -136 -106 -111 -131 -145 -114 -155
20 -12 10 -26 -11 -14 -23 12 -22 14 -157 -136 -193 -214 -392 -509 -392 -583
0 -21 -4 -42 -9 -47 -5 -6 -24 -55 -44 -110 -131 -377 -129 -742 8 -1158 l45
-139 0 -506 c-1 -763 -26 -1144 -92 -1401 -17 -64 -34 -132 -38 -151 -12 -58
-90 -220 -142 -297 l-49 -73 -187 -2 -187 -3 3 -32 c3 -29 0 -33 -22 -33 -17
0 -30 9 -43 30 -16 28 -21 30 -83 30 -65 0 -222 -16 -249 -25 -10 -4 -4 -15
21 -39 19 -18 43 -38 54 -44 15 -8 20 -18 17 -39 -3 -20 2 -34 16 -47 20 -18
21 -18 56 12 19 17 52 36 74 43 37 11 43 9 122 -31 46 -23 95 -50 109 -59 14
-10 72 -43 129 -75 93 -53 107 -58 140 -50 20 4 66 8 103 8 77 1 70 -10 88
136 14 117 14 125 -5 110 -8 -7 -15 -8 -15 -2 0 5 -9 12 -21 15 -29 8 -22 43
8 39 19 -3 23 3 29 43 3 25 4 49 1 52 -10 9 23 63 38 63 8 0 60 68 116 152 55
83 120 175 142 204 23 30 60 76 82 105 40 51 81 86 91 77 10 -10 -8 -35 -50
-68 -32 -26 -45 -44 -50 -70 -3 -19 -2 -36 3 -38 4 -1 17 -9 27 -17 14 -10 16
-16 7 -25 -8 -9 -19 -8 -45 6 -18 11 -36 24 -40 29 -5 7 -8 6 -8 0 0 -6 -27
-46 -60 -89 -33 -43 -60 -82 -60 -87 0 -5 -23 -40 -50 -79 -28 -39 -50 -73
-50 -78 0 -4 64 -8 142 -10 79 -1 146 -6 150 -10 4 -4 0 -70 -8 -146 -8 -83
-11 -143 -5 -149 5 -5 27 -11 50 -14 25 -4 41 -11 41 -19 0 -8 -7 -14 -15 -14
-8 0 -24 -9 -36 -21 -12 -12 -29 -19 -40 -16 -10 3 -21 1 -24 -3 -15 -24 -75
-294 -105 -470 -6 -36 -15 -76 -20 -90 -32 -92 -65 -181 -81 -217 -11 -23 -19
-47 -19 -53 0 -28 -139 -297 -218 -424 -97 -154 -222 -310 -282 -353 -44 -31
-54 -54 -55 -126 0 -37 -3 -47 -15 -45 -17 4 -24 65 -34 313 -4 87 -9 161 -11
164 -3 2 -5 -3 -5 -11 0 -9 -14 -21 -31 -28 -26 -11 -32 -11 -40 1 -5 8 -9 18
-9 22 0 15 53 57 71 57 14 0 19 7 19 28 0 52 12 104 21 90 7 -10 11 -10 25 3
23 23 10 57 -23 61 -31 4 -45 43 -68 190 -25 162 -17 239 17 173 16 -30 214
-159 233 -151 8 3 21 16 30 30 18 26 110 297 120 350 8 39 6 41 -150 131 -55
32 -157 91 -228 132 -125 72 -187 97 -187 74 0 -30 -22 -1 -78 102 -72 131
-172 257 -257 322 -33 25 -98 77 -145 116 -202 167 -445 298 -718 388 -147 48
-351 103 -439 117 l-42 6 -20 87 c-30 130 -48 243 -76 486 -48 414 -56 547
-62 998 l-5 437 -457 0 -456 -1 -105 38 c-104 38 -107 38 -255 38 -209 0 -251
-17 -221 -90 8 -18 13 -35 12 -37 -2 -2 -6 -18 -9 -35 -6 -28 -3 -33 12 -33
10 0 21 -6 24 -13 8 -22 77 -51 90 -38 36 36 37 -26 1 -64 -19 -20 -28 -25
-37 -16 -8 8 -17 5 -33 -10 l-22 -21 -7 21 c-3 12 -11 21 -16 21 -5 0 -9 13
-9 29 0 42 -10 64 -24 52 -7 -6 -17 -6 -26 -1 -12 7 -12 16 -4 49 10 37 9 41
-7 41 -15 0 -16 4 -8 32 5 18 9 34 9 35 0 2 -64 3 -142 3 l-143 0 -64 -213
c-87 -290 -124 -402 -128 -391 -2 5 17 77 42 159 25 83 58 188 72 235 14 47
34 113 44 148 l18 62 -230 0 -229 0 0 -407 c0 -487 23 -856 75 -1232 8 -58 15
-121 15 -142 0 -21 16 -125 36 -231 20 -106 40 -222 45 -258 5 -36 27 -132 49
-213 22 -82 40 -156 40 -165 0 -18 65 -240 105 -357 125 -369 206 -555 398
-906 13 -25 41 -68 61 -96 20 -28 36 -53 36 -57 0 -11 77 -108 174 -219 125
-143 222 -229 421 -375 81 -59 240 -150 370 -211 491 -233 1088 -353 1835
-368 892 -18 1574 127 2159 459 125 71 311 196 346 234 6 5 26 22 45 36 69 51
198 175 291 279 119 135 179 206 179 214 0 4 15 25 34 48 18 23 39 53 46 67 7
14 31 48 52 76 21 28 38 55 38 61 0 5 17 36 38 69 61 98 181 350 226 479 88
252 152 466 166 549 5 32 23 118 39 190 17 72 33 158 37 191 3 33 17 137 30
230 35 253 53 484 64 804 5 160 10 1492 10 3029 l0 2742 -259 0 -259 0 19 -37
c10 -21 19 -44 18 -53 0 -8 -6 -1 -12 15 -21 52 -37 75 -55 76 -20 0 -136 156
-120 161 6 2 -11 23 -38 46 -27 22 -60 51 -74 62 -14 12 -18 18 -10 14 8 -4
47 -34 86 -66 l71 -58 1006 0 1007 0 0 -4975 0 -4975 -4974 0 -4975 0 -3 27
c-2 19 -13 -7 -35 -84 -18 -61 -36 -118 -39 -127 -6 -15 428 -16 5110 -16
l5116 0 0 5175 0 5175 -1507 -1 -1508 0 -132 -97z m571 36 c-3 -44 -9 -58 -35
-82 -18 -16 -27 -31 -22 -35 6 -3 13 -17 17 -31 18 -65 29 -80 53 -80 21 0 22
-3 13 -20 -6 -11 -21 -22 -33 -25 -48 -10 -62 -10 -59 3 1 7 -9 12 -27 12 -25
0 -29 4 -33 35 -3 24 0 35 9 35 8 0 18 12 23 26 13 34 13 34 -10 34 -34 0 -24
36 16 61 36 22 36 23 15 31 -22 8 -20 10 26 47 26 22 49 40 49 40 1 1 0 -23
-2 -51z m146 22 c22 -11 40 -23 40 -25 0 -3 -17 3 -37 13 -21 11 -45 22 -53
25 -10 4 -11 6 -2 6 7 1 31 -8 52 -19z m35 -160 c3 -5 -1 -10 -9 -10 -8 0 -18
5 -21 10 -3 6 1 10 9 10 8 0 18 -4 21 -10z m218 -159 c26 -39 49 -106 30 -86
-19 19 -73 125 -64 125 4 0 20 -18 34 -39z m-265 -91 c42 -26 41 -51 -3 -84
-19 -15 -35 -31 -35 -35 0 -4 14 -29 31 -54 17 -26 29 -52 27 -58 -4 -11 -58
-34 -238 -103 -52 -20 -125 -51 -162 -68 -37 -18 -71 -29 -74 -25 -4 4 -15 25
-25 47 l-18 41 57 25 c116 51 292 138 288 142 -3 2 -40 -12 -83 -31 -151 -67
-250 -107 -264 -107 -8 0 -39 -9 -68 -20 -30 -11 -57 -18 -59 -15 -6 6 48 71
116 139 28 29 52 59 52 65 0 8 8 10 20 6 12 -4 27 -2 34 4 7 6 37 19 67 30 30
10 99 41 154 69 111 57 135 61 183 32z m341 -95 c12 -32 21 -68 21 -80 -1 -24
-48 83 -57 128 -9 50 12 22 36 -48z m89 -25 c6 -24 9 -46 8 -48 -4 -4 -36 87
-36 102 0 23 18 -11 28 -54z m-128 -24 c0 -3 -4 -8 -10 -11 -5 -3 -10 -1 -10
4 0 6 5 11 10 11 6 0 10 -2 10 -4z m-982 -18 c18 -18 15 -25 -13 -30 -30 -6
-42 7 -25 27 15 18 22 19 38 3z m1154 -201 c2 -37 1 -62 -3 -55 -3 7 -9 54
-12 103 -3 54 -2 76 3 55 4 -19 10 -65 12 -103z m-218 101 c15 -72 15 -106 2
-111 -15 -6 -46 51 -46 86 0 23 17 47 32 47 4 0 10 -10 12 -22z m-908 -179
c37 -58 40 -68 22 -70 -7 -1 -23 -3 -35 -4 -12 -1 -35 -16 -52 -32 -32 -33
-174 -95 -196 -87 -7 3 -19 19 -26 36 -12 30 -11 33 20 59 19 15 61 42 95 60
33 18 76 48 95 66 19 18 36 31 38 29 3 -3 20 -28 39 -57z m-447 22 c-8 -10
-54 -69 -103 -130 -91 -113 -146 -198 -146 -225 0 -7 -9 -24 -20 -37 l-20 -24
10 28 c37 105 122 237 217 338 63 67 90 89 62 50z m546 -31 c-3 -5 -13 -10
-21 -10 -8 0 -12 5 -9 10 3 6 13 10 21 10 8 0 12 -4 9 -10z m701 -27 c10 -47
9 -137 0 -152 -4 -6 -18 -11 -31 -11 -19 0 -26 -9 -39 -47 -9 -26 -16 -56 -16
-69 0 -12 -6 -26 -12 -31 -7 -6 -96 -38 -198 -73 -181 -61 -544 -196 -607
-225 -17 -8 -35 -15 -40 -15 -5 0 -64 -23 -132 -50 -67 -28 -126 -48 -132 -45
-12 8 -49 89 -49 109 0 8 -4 18 -10 21 -5 3 -10 32 -10 64 0 77 23 97 165 146
61 21 157 59 215 85 58 26 121 52 140 58 20 7 50 24 67 40 55 47 119 92 133
92 7 0 21 -7 30 -15 14 -13 23 -11 79 11 114 46 396 143 418 143 18 1 24 -6
29 -36z m324 -187 c-5 -65 -15 -126 -21 -135 -9 -14 -10 -14 -5 2 7 23 25 218
28 302 l2 60 3 -55 c3 -30 -1 -108 -7 -174z m-930 203 c0 -13 -67 -41 -88 -37
-12 2 -7 10 18 25 37 24 70 30 70 12z m866 -23 c6 -26 -12 -96 -25 -96 -9 0
-13 77 -5 102 8 25 23 22 30 -6z m-116 -177 c0 -18 -5 -29 -14 -29 -17 0 -28
27 -21 51 9 28 35 11 35 -22z m87 9 c-3 -7 -5 -2 -5 12 0 14 2 19 5 13 2 -7 2
-19 0 -25z m-1516 -194 c-9 -28 -9 -29 -10 -3 -1 14 2 29 6 32 11 12 13 2 4
-29z m106 -1 c-9 -9 -19 -14 -23 -11 -10 10 6 28 24 28 15 0 15 -1 -1 -17z
m1470 -5 c-3 -8 -6 -5 -6 6 -1 11 2 17 5 13 3 -3 4 -12 1 -19z m-1839 -46 c-6
-29 -13 -50 -16 -47 -2 2 1 27 8 55 7 28 14 49 16 47 3 -2 -1 -27 -8 -55z
m1818 -65 c-9 -40 -21 -79 -27 -87 -10 -13 -10 -13 -6 0 2 8 13 52 23 98 10
46 20 78 22 72 2 -6 -3 -43 -12 -83z m-304 61 c-7 -7 -12 -8 -12 -2 0 14 12
26 19 19 2 -3 -1 -11 -7 -17z m-14 -30 c3 -17 -31 -35 -36 -19 -2 6 -11 11
-20 11 -12 0 -9 4 8 14 30 17 44 15 48 -6z m-444 -121 c8 -13 7 -24 -4 -44
-20 -36 -32 -38 -63 -9 -33 31 -34 54 -4 66 31 13 58 8 71 -13z m351 -9 c14
-6 25 -15 25 -20 0 -17 18 -7 23 14 4 12 9 19 13 15 11 -10 -17 -94 -37 -113
-18 -16 -18 -15 -9 15 7 27 6 31 -10 31 -26 0 -33 -15 -20 -41 9 -16 8 -24 -2
-37 -8 -9 -31 -55 -52 -102 -21 -47 -49 -107 -61 -135 -13 -27 -26 -58 -29
-68 -3 -9 -19 -20 -36 -23 -16 -4 -41 -18 -56 -32 l-26 -27 26 -22 c33 -28 33
-38 -1 -69 -14 -13 -31 -34 -38 -47 -10 -20 -8 -23 30 -32 34 -9 44 -8 71 10
34 22 94 87 94 102 0 5 15 27 34 49 18 21 42 55 52 74 11 19 37 60 59 90 55
76 65 96 65 125 0 17 5 25 18 25 20 0 62 -35 62 -51 0 -16 -31 -71 -56 -102
-13 -16 -24 -34 -24 -40 -1 -7 -28 -50 -61 -97 -32 -47 -68 -103 -79 -125 -11
-22 -40 -62 -65 -90 -25 -27 -45 -59 -45 -71 0 -27 -66 -104 -89 -104 -49 0
-122 102 -114 158 l5 33 -64 -7 c-48 -5 -72 -3 -94 9 -41 21 -120 93 -164 148
-20 25 -67 72 -106 104 -84 71 -144 131 -144 145 0 5 9 10 19 10 11 0 41 9 68
21 190 81 747 286 785 289 4 0 19 -5 33 -12z m-1358 -30 c-3 -7 -5 -2 -5 12 0
14 2 19 5 13 2 -7 2 -19 0 -25z m-90 -45 c-2 -16 -4 -5 -4 22 0 28 2 40 4 28
2 -13 2 -35 0 -50z m1812 18 c-16 -54 -24 -46 -9 9 6 23 14 40 16 37 3 -3 0
-24 -7 -46z m-184 -40 c-3 -17 -10 -33 -15 -36 -16 -10 -39 7 -49 37 -14 39
-14 38 2 32 8 -3 20 2 27 11 21 25 44 -4 35 -44z m156 -34 c-10 -9 -11 -8 -5
6 3 10 9 15 12 12 3 -3 0 -11 -7 -18z m-26 -72 c-9 -26 -19 -44 -22 -41 -3 3
2 21 11 40 9 19 16 40 16 47 0 7 3 9 6 6 4 -4 -1 -27 -11 -52z m-1311 -61 c51
-62 57 -79 24 -68 -77 23 -128 72 -115 108 12 31 46 16 91 -40z m-408 -9 c9
-53 -2 -42 -15 14 -5 24 -6 39 -1 35 5 -5 12 -27 16 -49z m1670 -37 c-26 -64
-70 -148 -76 -148 -4 0 13 41 38 90 43 88 66 122 38 58z m-1617 -103 c0 -5
-11 10 -24 35 -13 25 -24 50 -24 55 0 6 11 -10 24 -35 13 -25 24 -49 24 -55z
m301 55 c0 -5 -2 -10 -4 -10 -3 0 -8 5 -11 10 -3 6 -1 10 4 10 6 0 11 -4 11
-10z m-244 -142 c26 -40 72 -104 102 -141 30 -38 52 -70 49 -73 -2 -2 -19 16
-38 40 -71 94 -127 172 -148 209 -39 64 -15 40 35 -35z m244 55 c-1 -54 -60
-65 -60 -12 0 26 4 29 30 29 22 0 30 -5 30 -17z m1220 -53 c-6 -12 -14 -20
-17 -17 -2 3 1 14 8 26 17 26 24 19 9 -9z m-47 -71 c-10 -17 -25 -36 -33 -42
-12 -10 -13 -9 -4 3 5 8 18 27 27 43 24 37 32 34 10 -4z m-768 -23 c51 -48 53
-62 13 -86 -14 -8 -47 -30 -74 -48 -40 -29 -51 -32 -71 -23 -13 6 -35 11 -48
11 -14 0 -25 4 -25 8 0 14 68 69 94 76 19 5 24 12 24 34 -1 30 17 72 31 72 5
0 30 -20 56 -44z m-345 24 c0 -5 -4 -10 -10 -10 -5 0 -10 5 -10 10 0 6 5 10
10 10 6 0 10 -4 10 -10z m1064 -72 c-13 -22 -81 -111 -109 -143 l-26 -30 15
32 c9 17 19 33 23 35 5 1 28 29 52 61 40 52 63 76 45 45z m-1072 -223 c7 -14
1 -11 -22 10 -17 17 -36 39 -42 50 -7 14 -1 11 22 -10 17 -16 36 -39 42 -50z
m884 -20 c-26 -30 -46 -59 -44 -64 2 -5 47 -55 101 -110 54 -56 95 -101 90
-101 -4 0 -57 49 -116 109 l-108 108 58 60 c32 32 60 58 62 56 2 -1 -17 -27
-43 -58z m-557 29 c22 -28 28 -54 12 -54 -16 0 -73 59 -66 70 11 17 33 11 54
-16z m-249 -79 c19 -19 32 -35 29 -35 -3 0 -20 16 -39 35 -19 19 -32 35 -29
35 3 0 20 -16 39 -35z m75 -65 c10 -11 16 -20 13 -20 -3 0 -13 9 -23 20 -10
11 -16 20 -13 20 3 0 13 -9 23 -20z m595 -38 c0 -5 -8 -17 -19 -26 -10 -9 -21
-30 -25 -47 -6 -34 -10 -34 -61 -13 -34 14 -37 18 -31 46 8 42 10 43 46 28 27
-11 34 -11 48 4 17 17 42 22 42 8z m-364 -73 c3 -6 -2 -19 -12 -30 -17 -18
-16 -19 13 -19 37 0 78 -49 68 -81 -4 -12 -32 -47 -64 -79 -31 -32 -83 -91
-116 -131 -33 -40 -86 -99 -117 -131 -32 -32 -58 -63 -58 -68 0 -4 -12 -23
-26 -40 -32 -38 -27 -46 19 -27 22 10 94 80 207 203 95 104 178 190 184 192 6
1 19 -10 28 -25 9 -15 41 -55 70 -87 l54 -59 41 18 c33 14 39 21 29 29 -7 6
-32 32 -55 58 l-42 46 38 -11 c65 -20 103 -58 109 -107 5 -43 30 -86 60 -107
46 -31 84 -71 84 -88 0 -9 -13 -24 -30 -33 -16 -9 -30 -21 -30 -25 0 -5 12
-27 28 -50 15 -23 40 -68 56 -99 16 -31 42 -69 58 -85 26 -25 34 -27 101 -25
71 3 72 3 90 -28 11 -17 20 -42 21 -55 2 -13 11 -55 21 -93 21 -80 15 -96 -35
-107 -42 -9 -50 -23 -39 -75 25 -121 49 -281 49 -330 0 -82 3 -84 95 -51 44
16 105 41 135 55 30 14 63 26 72 26 17 0 68 -64 68 -85 0 -5 9 -21 20 -35 20
-26 28 -113 12 -136 -4 -6 -27 -15 -52 -19 -100 -16 -274 -94 -312 -140 -10
-11 -30 -51 -45 -90 -14 -38 -33 -77 -40 -86 -7 -8 -13 -23 -13 -32 0 -9 -4
-19 -10 -22 -5 -3 -10 -12 -10 -20 0 -24 -117 -259 -169 -337 -28 -43 -49 -78
-46 -78 2 0 19 9 37 19 69 40 150 35 183 -12 19 -27 20 -116 1 -160 -15 -38
-63 -65 -251 -147 -246 -106 -245 -105 -287 -190 -21 -41 -49 -85 -62 -96
l-24 -22 86 -85 c48 -47 100 -96 116 -108 28 -22 28 -22 17 -1 -15 29 -15 50
1 34 9 -9 16 -8 30 5 27 24 47 3 29 -30 -11 -21 -9 -27 17 -55 37 -39 47 -40
60 -4 6 15 24 43 42 62 29 32 33 24 4 -10 -6 -8 -21 -31 -32 -51 -24 -44 -14
-68 50 -119 79 -63 312 -267 385 -336 78 -75 133 -140 133 -158 0 -6 -5 -4
-10 4 -5 8 -10 11 -10 7 0 -9 61 -97 67 -97 2 0 -1 9 -7 19 -22 42 -8 33 25
-16 19 -29 35 -57 35 -62 0 -6 8 -27 18 -47 13 -28 14 -38 5 -41 -7 -3 -13 -9
-13 -15 0 -6 6 -8 14 -5 19 7 28 -76 16 -149 -13 -79 -21 -81 -13 -3 7 70 7
71 5 113 -3 45 -10 27 -23 -54 -6 -41 -16 -81 -21 -88 -6 -7 -18 -27 -27 -45
-19 -37 -54 -47 -81 -22 -9 9 -24 15 -31 13 -9 -2 -15 7 -17 24 -2 14 -13 36
-25 47 -48 46 -105 91 -116 91 -6 0 -11 4 -11 9 0 4 -17 20 -37 33 -21 14 -72
54 -114 89 -163 138 -197 165 -238 189 -24 14 -52 35 -64 48 -11 12 -24 22
-29 22 -5 0 -29 15 -53 33 -32 23 -44 39 -45 58 0 28 -38 71 -117 135 -26 22
-62 54 -79 72 -39 40 -55 40 -91 2 -34 -36 -70 -42 -52 -9 6 12 8 36 4 55 -4
26 -2 36 10 40 20 8 19 38 -2 55 -9 8 -58 64 -109 124 -51 61 -136 155 -189
210 -52 55 -124 143 -159 195 -108 162 -161 244 -172 265 -78 145 -140 268
-159 318 -12 34 -40 107 -60 162 -20 55 -41 107 -45 116 -10 18 -31 94 -35
124 -2 11 -8 43 -13 70 -18 91 -25 316 -12 416 23 186 52 352 72 404 6 17 53
117 105 223 73 150 109 210 154 262 32 38 59 75 59 83 0 8 7 20 15 27 8 7 15
18 15 25 0 7 9 15 20 18 11 3 29 21 40 40 12 20 41 48 66 62 24 14 44 30 44
36 0 6 14 22 30 36 17 13 30 33 30 44 0 12 7 19 18 19 24 0 58 35 43 45 -6 3
-16 3 -22 -1 -15 -9 6 31 34 63 60 69 181 193 189 193 6 0 8 -14 4 -35 -4 -19
-3 -35 1 -35 19 1 43 29 43 52 0 14 3 27 6 30 6 7 61 -19 70 -33z m742 -147
c57 -67 68 -82 59 -82 -7 0 -137 159 -137 167 0 8 -3 11 78 -85z m43 -164 c20
-37 -2 -16 -46 45 l-47 62 42 -45 c22 -25 45 -53 51 -62z m-117 76 c11 -27 7
-42 -20 -74 -58 -68 -130 -76 -84 -8 28 40 81 98 91 98 4 0 10 -7 13 -16z
m176 -36 c15 -21 17 -28 6 -19 -16 13 -41 51 -33 51 2 0 14 -15 27 -32z
m-1200 18 c0 -3 -4 -8 -10 -11 -5 -3 -10 -1 -10 4 0 6 5 11 10 11 6 0 10 -2
10 -4z m1245 -82 c9 -15 12 -23 6 -20 -11 7 -35 46 -28 46 3 0 12 -12 22 -26z
m-1365 -44 c-20 -13 -33 -13 -25 0 3 6 14 10 23 10 15 0 15 -2 2 -10z m1410
-20 c6 -11 8 -20 6 -20 -3 0 -10 9 -16 20 -6 11 -8 20 -6 20 3 0 10 -9 16 -20z
m63 -92 c19 -29 48 -75 66 -102 17 -27 31 -54 31 -60 0 -6 -8 3 -18 19 -10 17
-42 67 -70 113 -29 45 -50 82 -47 82 3 0 20 -24 38 -52z m-60 -40 l18 -33 -20
25 c-44 55 -61 79 -61 87 1 11 42 -40 63 -79z m33 -125 c19 -25 17 -43 -4 -43
-10 0 -23 -5 -30 -12 -9 -9 -12 -7 -12 11 0 12 4 19 10 16 6 -4 10 5 10 19 0
30 8 33 26 9z m179 -100 c56 -117 145 -367 144 -403 -1 -17 -6 -8 -15 25 -36
128 -99 297 -146 388 -16 32 -25 56 -20 53 5 -3 22 -32 37 -63z m-105 -319 c0
-8 -4 -12 -10 -9 -5 3 -10 10 -10 16 0 5 5 9 10 9 6 0 10 -7 10 -16z m264
-129 c3 -8 1 -15 -4 -15 -6 0 -10 7 -10 15 0 8 2 15 4 15 2 0 6 -7 10 -15z
m20 -110 c4 -45 3 -51 -3 -25 -16 63 -22 116 -12 100 5 -8 12 -42 15 -75z
m-329 -14 c3 -5 1 -12 -5 -16 -5 -3 -10 1 -10 9 0 18 6 21 15 7z m50 -51 c0
-10 -9 -14 -27 -13 -16 1 -28 -2 -28 -8 0 -15 -17 -10 -24 7 -10 25 3 35 42
32 25 -2 37 -8 37 -18z m298 -139 c-7 -11 -11 8 -13 54 -3 82 3 95 9 20 3 -38
5 -72 4 -74z m7 -61 c0 -22 -3 -40 -8 -40 -4 0 -6 18 -4 40 2 22 6 40 8 40 2
0 4 -18 4 -40z m-11 -145 c-4 -44 -13 -98 -18 -120 l-11 -40 5 40 c3 22 8 80
12 128 3 48 9 84 13 80 4 -4 4 -44 -1 -88z m-32 -187 c-3 -8 -6 -5 -6 6 -1 11
2 17 5 13 3 -3 4 -12 1 -19z m-23 -98 c-16 -68 -31 -100 -19 -40 12 62 26 112
30 108 2 -2 -3 -33 -11 -68z m-153 -7 c-8 -15 -10 -15 -11 -2 0 17 10 32 18
25 2 -3 -1 -13 -7 -23z m-76 -63 c3 -5 15 -10 26 -10 12 0 19 -7 19 -17 -1
-21 -29 -74 -30 -55 0 7 -15 12 -40 12 -48 0 -60 18 -36 55 17 25 50 33 61 15z
m187 -65 c-9 -26 -18 -42 -20 -36 -3 10 24 81 32 81 3 0 -3 -20 -12 -45z m-29
-80 c-3 -9 -8 -14 -10 -11 -3 3 -2 9 2 15 9 16 15 13 8 -4z m-5874 -44 c19
-10 36 -22 38 -28 2 -6 -17 0 -43 13 -26 13 -53 24 -61 24 -7 0 -13 5 -13 11
0 12 30 5 79 -20z m5855 -3 c-14 -47 -25 -71 -29 -66 -3 2 3 23 12 46 17 44
29 58 17 20z m-6144 8 c0 -2 -9 -6 -20 -9 -11 -3 -20 -1 -20 4 0 5 9 9 20 9
11 0 20 -2 20 -4z m422 -87 c51 -33 67 -60 21 -35 -36 19 -91 65 -79 66 5 0
31 -14 58 -31z m-735 -36 c-8 -15 -18 -44 -22 -63 -3 -19 -9 -44 -12 -55 -5
-19 -5 -19 14 -2 27 23 43 21 43 -5 0 -36 -35 -84 -69 -96 -17 -6 -31 -7 -31
-2 0 20 13 40 26 40 8 0 14 8 13 18 0 10 -3 12 -6 5 -2 -7 -8 -13 -13 -13 -5
0 1 33 12 73 25 88 46 142 54 134 3 -3 -1 -18 -9 -34z m6394 -37 c-17 -36 -32
-66 -35 -66 -3 0 5 24 18 53 12 28 26 61 30 71 3 10 9 17 11 14 3 -3 -8 -35
-24 -72z m-5651 0 c0 -3 -4 -8 -10 -11 -5 -3 -10 -1 -10 4 0 6 5 11 10 11 6 0
10 -2 10 -4z m5463 -26 c3 -12 14 -20 26 -20 13 0 21 -6 21 -16 0 -11 -5 -14
-16 -10 -11 4 -18 -1 -21 -14 -3 -11 -11 -20 -19 -20 -7 0 -23 -18 -34 -40
-25 -49 -56 -69 -65 -41 -8 26 29 118 62 153 32 33 39 35 46 8z m-5748 -46 c9
-10 13 -24 10 -33 -4 -9 -9 -29 -12 -46 -4 -29 -2 -31 56 -54 63 -25 70 -34
48 -60 -7 -9 -39 -59 -72 -111 -32 -52 -73 -119 -92 -148 -19 -29 -44 -74 -55
-100 -11 -26 -22 -49 -24 -51 -2 -2 -23 7 -48 19 -45 21 -55 37 -37 56 18 19
161 293 161 309 0 5 -33 -48 -73 -120 -102 -180 -111 -195 -118 -195 -4 0 -21
-22 -39 -50 -18 -27 -36 -50 -40 -50 -8 0 -5 113 6 218 3 34 10 62 14 62 11 0
83 117 144 237 44 86 63 114 84 122 41 14 69 13 87 -5z m5887 -26 c-7 -7 -12
-8 -12 -2 0 14 12 26 19 19 2 -3 -1 -11 -7 -17z m-5542 -50 c22 -24 40 -46 40
-50 0 -23 -71 6 -92 36 -11 16 -9 56 2 56 6 0 29 -19 50 -42z m5520 7 c-7 -9
-15 -13 -18 -10 -3 2 1 11 8 20 7 9 15 13 18 10 3 -2 -1 -11 -8 -20z m-110 -9
c0 -8 -4 -18 -10 -21 -5 -3 -10 3 -10 14 0 12 5 21 10 21 6 0 10 -6 10 -14z
m35 -123 c-62 -106 -77 -127 -68 -95 3 12 11 27 19 33 8 6 14 16 14 21 0 5 15
32 33 61 18 29 36 61 40 71 4 10 10 16 13 13 4 -3 -19 -50 -51 -104z m-5195
31 c12 -25 20 -48 16 -51 -5 -5 -17 7 -63 66 -18 23 -16 31 6 31 13 0 27 -15
41 -46z m-1069 5 c30 10 37 3 17 -17 -9 -9 -9 -15 0 -24 19 -19 16 -30 -37
-140 -27 -57 -53 -116 -56 -131 -8 -30 -25 -46 -26 -25 -3 63 4 204 12 253 16
94 17 97 40 84 14 -7 29 -7 50 0z m1207 -84 c-3 -3 -9 2 -12 12 -6 14 -5 15 5
6 7 -7 10 -15 7 -18z m4902 0 c-27 -29 -37 -27 -20 4 6 12 18 21 27 21 13 0
12 -5 -7 -25z m-5242 -69 c58 -64 67 -88 43 -118 -15 -18 -16 -28 -8 -57 6
-20 19 -47 29 -60 20 -27 17 -37 -41 -116 -51 -69 -234 -347 -316 -480 -37
-60 -91 -146 -119 -190 -72 -111 -92 -143 -118 -192 -12 -23 -27 -44 -33 -47
-16 -6 -110 48 -108 62 2 6 -4 9 -13 5 -17 -6 -52 29 -78 77 -15 29 -11 76 10
105 95 132 284 450 284 479 0 21 39 137 51 152 5 7 18 10 29 7 15 -4 29 11 66
68 86 135 207 314 227 337 11 12 26 22 33 22 6 0 34 -24 62 -54z m390 -21 c-3
-3 -9 2 -12 12 -6 14 -5 15 5 6 7 -7 10 -15 7 -18z m-194 -7 c18 -30 -8 -44
-33 -19 -23 23 -19 44 6 39 9 -2 21 -11 27 -20z m5104 -8 c-22 -30 -35 -41
-22 -17 9 16 36 47 41 47 2 0 -6 -13 -19 -30z m-178 -27 c0 -5 -13 -30 -28
-58 -25 -47 -62 -73 -62 -43 1 23 59 108 75 108 8 0 15 -3 15 -7z m96 -34 c10
-16 -35 -49 -67 -49 -32 0 -44 24 -23 45 18 18 80 20 90 4z m-4773 -29 c3 -11
1 -18 -4 -14 -5 3 -9 12 -9 20 0 20 7 17 13 -6z m4792 -10 c-9 -16 -20 -30
-26 -30 -5 0 0 14 13 30 12 17 23 30 25 30 2 0 -3 -13 -12 -30z m-74 -108
c-23 -33 -49 -66 -57 -73 -9 -8 -2 6 15 31 18 25 41 60 53 78 11 18 22 31 25
28 2 -2 -14 -31 -36 -64z m-4687 42 c3 -8 2 -12 -4 -9 -6 3 -10 10 -10 16 0
14 7 11 14 -7z m3246 -25 c15 -28 5 -23 -15 7 -9 15 -12 23 -6 20 6 -4 16 -16
21 -27z m-4590 7 c0 -7 -7 -19 -15 -26 -20 -16 -38 -1 -29 23 7 20 44 23 44 3z
m1369 -51 c0 -5 -4 -3 -9 5 -5 8 -9 22 -9 30 0 16 17 -16 18 -35z m4365 -34
c28 -31 16 -62 -33 -88 -39 -20 -47 -22 -59 -9 -19 19 -9 60 23 92 29 29 46
30 69 5z m-4669 -43 c0 -34 -4 -43 -19 -46 -16 -3 -18 0 -12 19 4 13 10 34 13
47 9 36 18 25 18 -20z m322 20 c-3 -8 -6 -5 -6 6 -1 11 2 17 5 13 3 -3 4 -12
1 -19z m-1047 -3 c0 -18 -59 -85 -60 -67 0 7 7 28 14 47 15 35 46 48 46 20z
m5614 -17 c-24 -39 -128 -179 -137 -185 -5 -3 5 15 24 42 19 26 41 57 49 69
36 53 62 86 66 86 3 0 2 -6 -2 -12z m-1151 -148 c23 -30 65 -81 96 -112 30
-32 52 -60 49 -63 -8 -8 -190 198 -240 272 l-40 58 48 -50 c26 -27 65 -75 87
-105z m-4543 132 c0 -13 -12 -22 -22 -16 -10 6 -1 24 13 24 5 0 9 -4 9 -8z
m-124 -37 c10 -8 28 -15 39 -15 11 0 31 -7 44 -16 l23 -16 -31 -32 c-17 -18
-29 -35 -25 -39 19 -18 -82 -207 -111 -207 -34 0 -65 20 -65 42 0 25 30 109
59 167 10 20 21 56 24 81 3 25 6 46 6 48 2 6 19 0 37 -13z m1138 -85 c19 -31
19 -33 2 -46 -15 -10 -24 -10 -52 4 -27 14 -31 19 -19 28 8 6 15 18 15 26 0
40 28 34 54 -12z m-135 -29 c6 -19 11 -43 11 -54 0 -20 -1 -20 -13 -2 -8 10
-19 15 -25 11 -19 -11 -14 -37 8 -43 12 -3 20 -14 20 -27 0 -12 9 -65 21 -117
54 -251 52 -227 29 -264 -36 -58 -24 -95 32 -95 17 0 19 -6 18 -42 -2 -24 -2
-55 -1 -69 l1 -26 41 20 c22 11 43 27 46 36 2 9 8 23 13 33 5 9 7 52 5 95 -2
43 -7 150 -10 238 -5 127 -10 164 -22 178 -10 10 -13 21 -7 26 8 9 45 15 70
12 10 -1 32 -85 33 -126 0 -11 2 -45 5 -75 11 -133 19 -251 22 -335 1 -49 5
-113 9 -141 9 -71 -4 -94 -55 -94 -54 0 -123 32 -138 64 -15 33 -26 33 -54 0
-51 -58 -81 -67 -192 -61 -55 3 -115 11 -131 17 -17 7 -95 18 -174 26 -80 7
-151 16 -158 18 -10 4 -4 19 22 54 19 27 35 52 35 55 0 5 108 184 165 272 17
28 53 84 80 125 26 41 57 86 69 100 13 14 38 51 57 84 42 71 81 106 120 106
27 0 29 2 23 28 -9 37 10 17 25 -27z m308 -13 c-3 -8 -6 -5 -6 6 -1 11 2 17 5
13 3 -3 4 -12 1 -19z m20 -115 c-3 -10 -5 -4 -5 12 0 17 2 24 5 18 2 -7 2 -21
0 -30z m-1670 -218 c-2 -220 -17 -236 -18 -20 -1 117 7 225 17 225 2 0 3 -92
1 -205z m1008 100 c0 -37 -2 -40 -31 -43 -43 -4 -68 21 -52 51 15 30 28 38 58
35 22 -3 25 -8 25 -43z m4255 -31 c0 -8 -4 -14 -10 -14 -5 0 -10 -8 -10 -17 1
-17 1 -17 11 0 5 9 14 17 19 17 18 0 10 -27 -17 -56 -24 -26 -27 -27 -33 -10
-6 17 -9 16 -28 -12 -14 -18 -18 -33 -12 -37 6 -4 3 -16 -8 -33 -9 -14 -26
-43 -37 -63 -11 -20 -47 -72 -80 -115 -32 -44 -61 -81 -62 -83 -2 -2 -6 -1
-10 2 -3 4 1 15 9 24 27 32 78 123 69 123 -5 0 -20 -16 -33 -37 -12 -20 -32
-50 -43 -67 -11 -18 -33 -49 -50 -69 -16 -20 -30 -49 -30 -63 0 -21 -7 -28
-37 -39 -21 -7 -38 -11 -38 -8 0 3 20 28 44 56 24 29 61 79 82 112 22 33 92
131 157 217 82 109 117 165 117 184 0 22 2 25 15 14 8 -7 15 -19 15 -26z
m-3553 -116 c-3 -7 -5 -2 -5 12 0 14 2 19 5 13 2 -7 2 -19 0 -25z m0 -316 c-1
-53 -3 -7 -3 103 0 110 2 154 3 97 2 -57 2 -147 0 -200z m-1401 241 c-11 -11
-19 6 -11 24 8 17 8 17 12 0 3 -10 2 -21 -1 -24z m5077 24 c3 -7 -4 -19 -15
-26 -10 -6 -27 -31 -37 -54 -19 -44 -91 -117 -115 -117 -28 0 -24 17 20 81 74
106 133 153 147 116z m177 -116 c0 -11 -4 -23 -10 -26 -12 -7 -14 -26 -2 -23
4 2 43 -15 87 -36 99 -49 129 -61 180 -75 47 -12 118 -68 111 -86 -14 -36 105
-164 173 -186 70 -23 121 -80 121 -136 0 -18 -4 -33 -8 -33 -5 0 -22 -14 -38
-31 -77 -81 -92 -90 -259 -154 -33 -12 -98 -39 -145 -59 -47 -19 -92 -36 -101
-36 -8 0 -19 -4 -25 -9 -5 -6 -34 -17 -66 -25 -31 -8 -76 -24 -100 -35 l-43
-20 50 5 c51 6 192 51 275 86 56 25 246 97 282 108 18 5 33 4 46 -6 11 -7 22
-11 24 -8 15 15 61 -107 57 -153 -1 -16 2 -36 6 -47 14 -31 -8 -51 -56 -52
-65 -1 -69 -3 -69 -19 0 -8 -7 -15 -15 -15 -18 0 -20 16 -2 23 24 10 -65 7
-108 -4 -32 -8 -61 -8 -116 2 -41 7 -103 14 -139 15 -36 2 -119 8 -185 14 -66
6 -170 14 -231 17 l-112 6 5 -28 c5 -21 0 -32 -23 -51 -37 -30 -50 -30 -69 0
-20 29 -10 56 20 56 13 0 27 5 31 11 4 8 -3 9 -25 4 -21 -4 -31 -3 -31 5 0 19
-147 -3 -202 -31 -24 -12 -28 -11 -28 6 0 9 7 18 15 21 11 5 12 11 4 25 -22
42 -1 85 82 159 43 40 79 78 79 85 0 7 21 32 47 55 58 51 179 193 238 280 25
36 52 75 61 88 14 19 14 22 1 22 -22 0 -39 26 -42 66 -2 43 15 63 50 56 33 -6
42 -26 25 -58 -15 -26 -9 -40 14 -31 9 4 12 14 9 28 -4 16 -3 20 6 15 15 -10
51 21 51 43 0 9 12 27 25 40 17 16 25 34 25 57 0 22 6 37 15 40 10 4 13 14 9
30 -5 18 -2 24 10 24 9 0 16 -8 16 -19z m-5543 -53 c-3 -8 -6 -5 -6 6 -1 11 2
17 5 13 3 -3 4 -12 1 -19z m5041 -142 c4 -18 -14 -46 -29 -46 -11 0 -12 54 -2
64 11 10 28 1 31 -18z m-4414 -60 c80 -21 72 -39 -22 -52 -38 -5 -52 -2 -71
13 -31 25 -22 53 16 53 15 -1 50 -7 77 -14z m1072 -42 c13 -10 12 -13 -2 -18
-25 -10 -36 7 -28 40 7 24 9 25 12 9 2 -11 10 -25 18 -31z m3283 10 c24 -41
14 -67 -23 -62 -17 2 -21 10 -20 36 2 33 10 62 18 62 2 0 14 -16 25 -36z
m-3835 -27 c20 -14 21 -6 -28 -142 -8 -22 -20 -42 -28 -46 -7 -3 -28 -13 -47
-23 -18 -9 -36 -14 -39 -12 -7 7 19 97 34 120 11 16 10 23 -6 44 -11 14 -20
35 -20 48 0 23 4 24 58 24 32 0 66 -6 76 -13z m629 -4 c-7 -2 -19 -2 -25 0 -7
3 -2 5 12 5 14 0 19 -2 13 -5z m110 -20 c-7 -2 -19 -2 -25 0 -7 3 -2 5 12 5
14 0 19 -2 13 -5z m2937 -3 c0 -5 -8 -10 -17 -10 -15 0 -16 2 -3 10 19 12 20
12 20 0z m445 -20 c-3 -5 -13 -10 -21 -10 -8 0 -12 5 -9 10 3 6 13 10 21 10 8
0 12 -4 9 -10z m-4584 -93 c4 -14 4 -28 1 -31 -12 -13 -38 -5 -50 15 -11 18
-11 23 5 35 24 18 35 13 44 -19z m991 12 c-4 -14 -4 -25 0 -73 3 -27 -1 -31
-35 -39 -44 -11 -54 -4 -59 38 -3 27 0 30 28 33 26 3 33 8 38 33 3 19 11 29
18 26 7 -2 12 -11 10 -18z m463 -9 c13 -6 15 -9 5 -9 -8 0 -22 4 -30 9 -18 12
-2 12 25 0z m85 -20 c13 -8 13 -10 -2 -10 -9 0 -20 5 -23 10 -8 13 5 13 25 0z
m2718 -15 c24 -20 41 -25 86 -25 43 0 56 -3 56 -15 0 -23 -37 -55 -64 -55 -38
0 -111 35 -134 65 -41 52 3 75 56 30z m-2817 -26 c17 -32 -15 -149 -41 -149
-21 0 -25 138 -5 170 8 13 34 1 46 -21z m-1836 3 c-3 -3 -11 0 -18 7 -9 10 -8
11 6 5 10 -3 15 -9 12 -12z m515 14 c0 -3 -4 -8 -10 -11 -5 -3 -10 -1 -10 4 0
6 5 11 10 11 6 0 10 -2 10 -4z m445 -38 c48 -22 21 -45 -40 -34 -47 9 -46 42
2 45 7 1 24 -4 38 -11z m-890 -18 c3 -6 -1 -7 -9 -4 -18 7 -21 14 -7 14 6 0
13 -4 16 -10z m2092 4 c-3 -3 -12 -4 -19 -1 -8 3 -5 6 6 6 11 1 17 -2 13 -5z
m170 -108 c2 -1 -3 -14 -10 -29 -13 -29 -33 -38 -23 -11 4 10 -1 26 -11 37
-18 20 -17 20 12 13 16 -4 31 -9 32 -10z m3995 -18 c-7 -7 -12 -8 -12 -2 0 14
12 26 19 19 2 -3 -1 -11 -7 -17z m-5872 -18 c20 -6 21 -8 5 -8 -11 0 -29 3
-40 8 -25 11 1 11 35 0z m3929 -21 c22 -11 45 -27 52 -36 7 -8 23 -19 36 -24
32 -12 29 -32 -7 -47 -26 -12 -36 -11 -76 5 -25 10 -55 28 -67 39 -12 12 -31
23 -41 25 -29 6 -32 29 -4 29 13 0 33 7 44 15 24 18 17 19 63 -6z m1905 -30
c-16 -23 -46 -55 -66 -72 -21 -17 -38 -39 -38 -50 0 -18 -4 -19 -42 -12 -24 4
-58 8 -76 10 -39 4 -62 21 -62 47 0 11 -5 29 -11 40 -11 21 -11 21 19 0 16
-12 35 -22 41 -22 5 0 27 -11 47 -25 20 -14 43 -25 51 -25 19 0 121 97 140
133 8 16 17 26 20 23 3 -3 -7 -24 -23 -47z m-5144 14 c0 -25 1 -25 18 -9 20
17 74 14 100 -7 14 -11 16 -95 3 -130 -5 -13 -12 -100 -16 -193 -4 -92 -10
-175 -15 -184 -4 -8 -5 -44 -1 -80 l7 -65 20 33 c20 31 36 135 59 377 16 168
19 180 40 177 28 -5 32 -12 13 -23 -21 -12 -25 -33 -43 -214 -18 -196 -8 -209
67 -82 23 40 63 107 89 150 27 45 45 86 42 94 -3 8 -20 22 -37 30 -30 13 -30
14 24 8 59 -6 57 -7 86 60 2 6 -6 11 -18 12 -30 2 -89 13 -108 19 -22 8 45 34
85 34 21 0 53 -14 94 -42 58 -39 68 -42 132 -42 83 -1 106 -17 89 -61 -6 -15
-9 -28 -8 -29 43 -17 289 -96 300 -96 8 0 33 16 56 35 40 35 42 35 74 22 18
-8 53 -32 77 -53 24 -22 60 -53 79 -69 l34 -31 -16 -38 c-9 -21 -16 -46 -16
-56 0 -25 62 -70 81 -59 12 6 35 -12 95 -72 78 -78 79 -79 44 -73 l-35 7 27
-29 c15 -16 43 -47 62 -69 19 -22 36 -38 38 -35 38 52 91 136 111 175 35 69
61 95 89 88 69 -17 148 -63 177 -104 17 -23 31 -45 31 -48 0 -4 -24 -32 -54
-64 -35 -37 -70 -90 -100 -151 -51 -104 -56 -141 -30 -241 55 -216 91 -392 99
-485 3 -41 9 -86 11 -100 5 -23 7 -22 27 20 25 51 76 90 119 90 45 0 88 -36
114 -97 23 -52 23 -54 7 -96 -9 -23 -44 -91 -78 -152 -168 -302 -166 -298
-144 -378 10 -37 12 -38 47 -33 20 3 73 8 117 11 l80 7 -30 -22 c-27 -19 -93
-52 -200 -100 -94 -41 -87 -40 -345 -81 -153 -25 -154 -25 -232 -15 -32 4 -59
3 -62 -3 -3 -5 -23 -7 -43 -5 -21 3 -60 6 -87 9 -27 2 -62 9 -78 16 -16 6 -60
12 -98 13 -39 0 -70 4 -70 9 0 4 -12 7 -26 7 -14 0 -23 -4 -19 -10 7 -12 -2
-13 -75 -10 -52 1 -100 20 -52 20 12 0 22 5 22 10 0 6 -4 10 -10 10 -9 0 -162
94 -290 178 -138 91 -317 266 -394 385 -52 80 -143 238 -161 277 -8 19 -20 42
-25 50 -10 16 -34 70 -57 130 -15 40 -57 257 -82 425 -4 28 -9 55 -11 60 -2 6
-1 17 3 25 13 35 14 116 2 140 -10 20 -10 36 0 85 7 33 9 64 4 69 -4 5 -1 25
7 45 22 51 35 148 23 177 -7 19 -5 26 6 30 9 4 15 19 15 36 0 23 -4 29 -15 24
-8 -3 -16 0 -16 7 -5 41 13 233 26 295 7 30 19 28 35 -5 l13 -28 10 29 c7 21
6 35 -2 48 -15 23 -14 26 7 31 47 12 62 8 62 -20z m-347 -20 c-7 -2 -19 -2
-25 0 -7 3 -2 5 12 5 14 0 19 -2 13 -5z m190 -60 c-7 -71 -13 -81 -13 -22 0
48 -7 63 -30 72 -8 3 -1 6 17 6 l32 1 -6 -57z m-14 -126 c-5 -17 -12 -76 -16
-129 -5 -85 -4 -98 11 -104 23 -9 20 -27 -3 -19 -17 5 -20 -1 -27 -62 -9 -89
-25 -129 -19 -48 20 248 42 408 55 400 5 -3 4 -20 -1 -38z m5285 -19 c5 -20 5
-44 1 -54 -6 -15 -11 -9 -22 31 -7 28 -19 59 -25 70 -10 18 -10 19 13 4 13 -9
28 -32 33 -51z m-3640 11 c-3 -5 -10 -7 -15 -3 -5 3 -7 10 -3 15 3 5 10 7 15
3 5 -3 7 -10 3 -15z m1389 -26 c-7 -2 -19 -2 -25 0 -7 3 -2 5 12 5 14 0 19 -2
13 -5z m937 -63 c0 -5 -4 -10 -10 -10 -5 0 -10 5 -10 10 0 6 5 10 10 10 6 0
10 -4 10 -10z m263 -48 c39 -43 46 -155 11 -169 -22 -8 -34 14 -34 65 0 23 -4
42 -10 42 -13 0 -42 58 -35 70 10 16 51 11 68 -8z m-1902 -13 c-16 -6 -28 -6
-35 1 -7 7 1 10 25 9 32 0 33 -1 10 -10z m269 -3 c0 -16 -83 -28 -114 -16 -20
8 -20 8 4 18 38 16 110 15 110 -2z m288 -42 c26 -17 28 -27 6 -49 -23 -22 -83
-16 -100 10 -12 18 -11 24 2 44 18 25 48 23 92 -5z m1877 16 c4 -6 15 -8 24
-5 24 7 44 -19 36 -45 -8 -25 -20 -26 -38 0 -13 18 -18 19 -41 9 -30 -14 -32
-13 -41 24 -7 25 -5 27 23 27 17 0 34 -5 37 -10z m-200 -43 c23 -19 27 -32 31
-90 2 -37 6 -72 9 -77 12 -19 -16 -20 -37 -1 -12 12 -28 21 -35 21 -13 0 -15
16 -18 110 -2 69 7 75 50 37z m-2751 -44 c-34 -31 -69 -21 -46 13 14 21 46 33
59 22 10 -8 7 -16 -13 -35z m1943 2 c55 -23 37 -40 -48 -43 -99 -4 -153 8
-157 33 -2 18 4 20 83 22 58 2 98 -2 122 -12z m351 -49 c2 -10 0 -22 -6 -28
-13 -13 -76 -22 -68 -10 3 5 10 21 16 36 7 20 16 27 32 24 13 -2 24 -11 26
-22z m-120 -23 c-4 -23 -48 -31 -48 -10 0 9 6 18 13 20 25 11 38 7 35 -10z
m425 -56 c6 -26 16 -39 32 -43 12 -3 101 -2 198 3 97 4 173 5 169 1 -23 -21
-518 -27 -581 -7 -53 18 -17 28 45 13 64 -14 105 -2 103 31 -4 59 21 60 34 2z
m-533 -18 c47 -1 76 -3 65 -6 -11 -2 -30 -6 -42 -9 -13 -2 -22 -9 -20 -15 2
-12 -3 -13 -108 -23 -33 -4 -104 -21 -158 -40 -98 -34 -146 -65 -148 -95 0
-11 -3 -10 -9 4 -7 19 12 154 25 175 3 5 62 8 130 8 69 0 129 2 132 6 4 4 17
5 28 2 11 -3 58 -6 105 -7z m212 -16 c27 -24 23 -29 -27 -25 l-45 4 23 19 c27
23 26 23 49 2z m823 6 c-22 -4 -51 -8 -65 -7 -35 1 34 15 75 16 25 0 23 -2
-10 -9z m-4970 -86 c-3 -49 -7 -148 -10 -222 -2 -73 -7 -136 -11 -140 -8 -8 3
396 12 427 12 41 15 23 9 -65z m4030 67 c15 -6 7 -9 -30 -9 -37 0 -45 3 -30 9
11 5 25 9 30 9 6 0 19 -4 30 -9z m-1578 -162 c-3 -8 -6 -5 -6 6 -1 11 2 17 5
13 3 -3 4 -12 1 -19z m1060 -55 c-3 -10 -5 -4 -5 12 0 17 2 24 5 18 2 -7 2
-21 0 -30z m-1007 -87 c0 -26 -6 -18 -14 19 -5 22 -4 26 4 15 5 -8 10 -24 10
-34z m-130 -73 c0 -13 -6 -23 -14 -23 -7 0 -19 -7 -26 -15 -7 -8 -23 -15 -36
-15 -20 0 -24 5 -24 33 0 39 15 57 47 57 13 0 23 6 23 13 1 22 30 -26 30 -50z
m1095 -30 c-10 -43 -20 -72 -22 -65 -6 15 27 155 34 148 3 -3 -3 -40 -12 -83z
m-3475 -85 c0 -51 -5 -47 -13 10 -3 24 -1 40 4 36 5 -3 9 -24 9 -46z m2557 10
c-3 -7 -5 -2 -5 12 0 14 2 19 5 13 2 -7 2 -19 0 -25z m10 -40 c-3 -8 -6 -5 -6
6 -1 11 2 17 5 13 3 -3 4 -12 1 -19z m-2560 -65 c-3 -10 -5 -4 -5 12 0 17 2
24 5 18 2 -7 2 -21 0 -30z m10 -75 c-3 -7 -5 -2 -5 12 0 14 2 19 5 13 2 -7 2
-19 0 -25z m27 -128 l5 -45 -14 50 c-8 28 -14 64 -14 80 1 30 1 30 9 -5 5 -19
11 -55 14 -80z m2466 69 c0 -5 -5 -9 -11 -9 -6 0 -8 -7 -5 -16 3 -9 3 -21 -1
-27 -5 -7 -8 -39 -8 -71 0 -37 -5 -61 -12 -63 -28 -10 -72 133 -54 178 8 22
14 24 50 21 23 -2 41 -8 41 -13z m20 -95 c0 -8 -4 -12 -10 -9 -5 3 -10 10 -10
16 0 5 5 9 10 9 6 0 10 -7 10 -16z m-2452 -89 c-3 -3 -9 2 -12 12 -6 14 -5 15
5 6 7 -7 10 -15 7 -18z m2454 -116 l-8 -34 -8 29 c-5 20 -3 32 6 37 18 11 20
5 10 -32z m-2394 -50 c-3 -8 -7 -3 -11 10 -4 17 -3 21 5 13 5 -5 8 -16 6 -23z
m2387 -141 c3 -13 7 -43 8 -68 1 -34 -2 -45 -13 -45 -16 0 -34 86 -24 118 7
24 23 21 29 -5z m-1959 -426 c38 -37 46 -55 12 -27 -36 29 -158 156 -158 163
0 3 25 -18 56 -48 31 -30 72 -70 90 -88z m1917 88 c25 -20 25 -21 11 -65 -21
-59 -35 -70 -63 -48 -29 24 -32 100 -5 120 23 17 27 17 57 -7z m-78 -300 c-27
-12 -43 -12 -25 0 8 5 22 9 30 9 10 0 8 -3 -5 -9z m-1320 -55 c119 -19 155
-19 171 3 12 16 13 16 14 -4 0 -19 9 -23 93 -33 50 -7 163 -15 250 -18 91 -4
153 -10 145 -15 -7 -4 -42 -6 -78 -3 -36 2 -110 7 -165 10 -190 12 -518 55
-534 71 -7 6 9 5 104 -11z m1045 -34 c-8 -5 -55 -11 -105 -14 l-90 -6 85 13
c111 17 130 18 110 7z m-253 -27 c-3 -3 -12 -4 -19 -1 -8 3 -5 6 6 6 11 1 17
-2 13 -5z"/>
<path d="M8020 10005 c-16 -9 -19 -14 -9 -15 8 0 24 7 35 15 24 18 7 19 -26 0z"/>
<path d="M7950 9942 c-52 -26 -137 -66 -188 -90 -95 -44 -111 -64 -77 -92 12
-10 26 -8 73 12 31 14 123 51 204 82 85 33 149 64 152 73 9 23 -21 63 -47 62
-12 0 -65 -21 -117 -47z"/>
<path d="M8060 9481 c-155 -59 -226 -88 -255 -105 -16 -9 -21 -14 -10 -10 52
17 86 30 166 61 48 18 93 33 101 33 7 0 22 6 33 14 11 7 34 18 50 24 21 7 24
10 10 11 -11 0 -54 -13 -95 -28z"/>
<path d="M8045 9440 c-60 -25 -325 -125 -570 -217 -211 -78 -401 -157 -412
-170 -18 -23 4 -63 34 -63 13 0 63 15 111 34 283 111 608 231 747 275 198 65
207 69 218 108 21 70 -15 79 -128 33z"/>
<path d="M7640 9321 c-150 -54 -221 -83 -216 -89 3 -2 24 3 48 13 24 10 75 28
113 40 72 24 188 74 170 74 -5 0 -57 -17 -115 -38z"/>
<path d="M7220 9163 c-91 -35 -169 -70 -175 -75 -15 -16 36 -2 98 26 80 37
206 86 220 86 7 0 22 7 33 15 37 28 -9 15 -176 -52z"/>
<path d="M7985 8991 c-140 -49 -185 -67 -420 -160 -126 -50 -233 -97 -237
-104 -11 -15 116 -135 152 -144 13 -3 105 8 205 25 99 18 192 32 208 32 15 0
35 8 46 19 28 28 153 291 154 326 3 39 -11 40 -108 6z"/>
<path d="M7780 8953 c-14 -3 -29 -9 -34 -14 -16 -14 26 -10 54 6 26 15 23 16
-20 8z"/>
<path d="M7575 8876 c-135 -53 -204 -84 -188 -85 22 -2 304 107 320 123 15 15
-29 2 -132 -38z"/>
<path d="M7842 8495 c6 -14 13 -23 16 -21 7 7 -9 46 -18 46 -5 0 -4 -11 2 -25z"/>
<path d="M7568 7698 c-74 -74 -208 -226 -208 -237 0 -18 24 -13 117 25 48 20
110 45 137 56 78 30 106 47 106 64 0 25 -81 124 -101 124 -10 0 -33 -15 -51
-32z"/>
<path d="M7870 7340 c-9 -6 -10 -10 -3 -10 6 0 15 5 18 10 8 12 4 12 -15 0z"/>
<path d="M7800 7289 c-58 -22 -186 -72 -285 -109 -404 -154 -489 -189 -506
-211 -19 -26 -93 -203 -115 -278 -10 -34 -12 -57 -6 -63 6 -6 62 11 153 46 79
30 293 111 474 181 348 132 525 201 563 218 41 19 24 67 -62 177 -28 36 -55
68 -61 72 -19 14 -50 7 -155 -33z"/>
<path d="M7605 7240 c-13 -6 -15 -9 -5 -9 8 0 22 4 30 9 18 12 2 12 -25 0z"/>
<path d="M7070 7035 c-19 -7 -28 -14 -20 -14 8 0 29 6 45 14 39 17 21 18 -25
0z"/>
<path d="M6951 6981 c-12 -16 -21 -32 -21 -35 0 -4 -15 -39 -34 -79 -58 -123
-96 -277 -68 -277 10 0 37 61 51 117 7 23 34 95 61 160 28 64 50 123 50 130 0
22 -18 15 -39 -16z"/>
<path d="M8095 6734 c-49 -20 -153 -59 -230 -88 -77 -29 -237 -89 -355 -134
-118 -44 -282 -105 -365 -135 -292 -107 -303 -113 -296 -174 3 -30 -17 -39
-28 -11 -8 19 -10 13 -10 -30 -1 -59 24 -179 45 -220 8 -15 14 -32 14 -39 0
-24 34 -83 47 -83 11 0 10 7 -2 37 -9 20 -20 42 -26 50 -6 7 -9 13 -5 13 4 0
-3 18 -15 41 -23 47 -50 164 -42 185 11 29 20 11 45 -88 14 -57 40 -133 57
-170 28 -63 33 -68 61 -68 17 0 43 6 58 14 15 8 190 80 387 161 198 80 466
190 595 242 129 53 243 103 253 111 13 12 17 31 17 84 0 85 -25 257 -45 304
-18 44 -42 44 -160 -2z"/>
<path d="M7615 6580 c-13 -5 -14 -9 -5 -9 8 0 24 4 35 9 13 5 14 9 5 9 -8 0
-24 -4 -35 -9z"/>
<path d="M7478 6523 c7 -3 16 -2 19 1 4 3 -2 6 -13 5 -11 0 -14 -3 -6 -6z"/>
<path d="M7303 6465 c-18 -8 -33 -16 -33 -19 0 -3 15 1 33 8 17 7 39 16 47 19
13 5 13 5 0 6 -8 0 -30 -6 -47 -14z"/>
<path d="M7155 6410 c-3 -6 1 -7 9 -4 18 7 21 14 7 14 -6 0 -13 -4 -16 -10z"/>
<path d="M7068 6373 c7 -3 16 -2 19 1 4 3 -2 6 -13 5 -11 0 -14 -3 -6 -6z"/>
<path d="M6785 6270 c3 -5 12 -7 20 -3 21 7 19 13 -6 13 -11 0 -18 -4 -14 -10z"/>
<path d="M8096 5945 c-99 -41 -189 -78 -200 -81 -12 -4 -95 -37 -186 -74 -91
-36 -264 -106 -385 -153 -121 -48 -226 -91 -234 -96 -9 -6 -11 -18 -8 -33 14
-55 241 -376 272 -384 16 -4 314 116 385 155 8 4 56 25 105 46 147 63 183 90
238 183 67 113 227 465 227 498 0 24 -30 15 -214 -61z"/>
<path d="M7015 5530 c-19 -31 266 -450 307 -450 17 0 7 29 -23 66 -30 37 -171
247 -233 347 -30 48 -40 55 -51 37z"/>
<path d="M7990 5370 c-9 -6 -10 -10 -3 -10 6 0 15 5 18 10 8 12 4 12 -15 0z"/>
<path d="M7850 5310 c-8 -5 -10 -10 -5 -10 6 0 17 5 25 10 8 5 11 10 5 10 -5
0 -17 -5 -25 -10z"/>
<path d="M8070 4355 c0 -2 10 -10 23 -16 20 -11 21 -11 8 4 -13 16 -31 23 -31
12z"/>
<path d="M8170 4270 c30 -29 89 -84 130 -124 212 -199 254 -235 187 -156 -37
45 -68 74 -241 231 -100 90 -162 130 -76 49z"/>
<path d="M8641 3765 c1 -19 18 -51 18 -35 0 8 -4 22 -9 30 -5 8 -9 11 -9 5z"/>
<path d="M2671 5313 c-10 -26 -10 -27 4 -9 8 11 15 23 15 28 0 15 -7 8 -19
-19z"/>
<path d="M2708 5323 c-9 -10 -56 -97 -106 -193 -69 -135 -88 -180 -81 -193 16
-27 48 -20 67 13 9 17 59 98 110 180 50 82 92 159 92 169 0 38 -56 53 -82 24z"/>
<path d="M3037 4948 c-13 -18 -32 -46 -42 -63 -10 -16 -34 -54 -52 -83 -19
-29 -33 -57 -31 -63 2 -6 23 22 47 63 25 40 56 89 71 108 26 33 44 70 35 70
-2 0 -15 -15 -28 -32z"/>
<path d="M3073 4948 c-11 -13 -33 -45 -49 -73 -31 -55 -126 -206 -244 -390
-254 -395 -313 -495 -304 -519 8 -21 50 -31 69 -16 8 6 38 51 68 98 161 259
323 511 398 619 46 67 99 144 117 170 25 37 32 55 27 77 -11 58 -46 73 -82 34z"/>
<path d="M2798 4573 c-29 -35 -80 -124 -75 -129 3 -4 21 18 40 47 56 88 72
125 35 82z"/>
<path d="M2685 4399 c-4 -6 -5 -12 -2 -15 2 -3 7 2 10 11 7 17 1 20 -8 4z"/>
<path d="M2625 4300 c-9 -18 -14 -34 -11 -37 2 -3 12 9 21 27 9 18 14 34 11
37 -2 3 -12 -9 -21 -27z"/>
<path d="M2575 4220 c-9 -16 -13 -30 -11 -30 3 0 12 14 21 30 9 17 13 30 11
30 -3 0 -12 -13 -21 -30z"/>
<path d="M2523 4138 c-55 -88 -84 -141 -79 -145 5 -5 32 37 85 130 38 66 34
77 -6 15z"/>
<path d="M3259 4498 c-24 -35 -64 -94 -88 -133 -90 -144 -235 -382 -264 -434
-29 -52 -29 -55 -12 -67 13 -10 49 -14 111 -14 l92 0 153 160 c85 88 157 167
162 175 5 9 -3 67 -18 141 -14 69 -25 134 -25 144 0 32 -33 90 -50 90 -10 0
-37 -28 -61 -62z"/>
<path d="M3107 4322 c-19 -20 -22 -32 -9 -32 5 0 14 11 20 25 14 30 11 31 -11
7z"/>
<path d="M3059 4243 c-17 -20 -75 -108 -111 -168 -25 -41 -40 -75 -34 -75 8 0
75 99 96 142 12 23 33 58 47 76 26 34 27 56 2 25z"/>
<path d="M3430 4005 c7 -8 17 -15 22 -15 6 0 5 7 -2 15 -7 8 -17 15 -22 15 -6
0 -5 -7 2 -15z"/>
<path d="M7587 4004 c-16 -16 -6 -35 16 -32 12 2 22 10 22 18 0 16 -26 25 -38
14z"/>
<path d="M7888 3785 c-3 -3 -131 -37 -284 -75 l-279 -69 -49 -53 c-27 -29 -67
-75 -89 -103 -59 -74 -57 -74 238 11 83 24 177 52 210 62 33 11 128 38 210 61
173 49 195 57 195 71 0 6 -19 31 -41 55 -33 35 -48 45 -74 45 -17 0 -34 -2
-37 -5z"/>
<path d="M8010 3398 c-79 -20 -290 -83 -500 -148 -69 -21 -165 -50 -214 -65
-50 -15 -85 -30 -80 -35 5 -5 40 -14 77 -20 64 -10 73 -9 150 19 45 16 146 52
225 80 79 28 180 66 225 84 45 18 115 46 155 62 69 27 92 46 55 44 -10 0 -52
-10 -93 -21z"/>
<path d="M8155 3140 c-16 -7 -17 -9 -3 -9 9 -1 20 4 23 9 7 11 7 11 -20 0z"/>
<path d="M8040 3100 c0 -13 20 -13 40 0 12 8 9 10 -12 10 -16 0 -28 -4 -28
-10z"/>
<path d="M8120 3091 c-12 -9 -12 -11 2 -16 21 -8 48 -3 51 10 3 14 -34 17 -53
6z"/>
<path d="M6690 3356 c0 -17 27 -29 35 -16 4 6 3 15 0 20 -9 15 -35 12 -35 -4z"/>
<path d="M4191 3109 c-12 -13 -43 -58 -69 -99 -25 -41 -104 -166 -174 -278
-188 -295 -257 -411 -264 -436 -11 -44 75 -342 104 -360 13 -8 29 13 97 124
59 95 268 427 442 702 89 141 103 168 85 168 -9 0 -138 127 -173 171 l-25 32
-23 -24z"/>
<path d="M4663 2695 c-27 -42 -77 -123 -113 -178 -36 -56 -104 -162 -150 -235
-47 -73 -129 -201 -183 -284 -118 -180 -217 -354 -217 -378 0 -10 11 -25 24
-33 13 -9 26 -29 29 -45 10 -48 224 -202 281 -202 31 0 6 -37 311 475 131 220
283 474 337 564 54 90 98 170 98 178 0 21 -53 95 -93 130 -23 20 -51 33 -81
37 -42 7 -130 27 -178 42 -14 4 -29 -13 -65 -71z"/>
<path d="M3634 2285 c-22 -56 88 -415 126 -415 15 0 13 11 -25 126 -19 58 -35
113 -35 123 0 21 -49 181 -56 181 -3 0 -7 -7 -10 -15z"/>
<path d="M5248 2248 c-18 -30 -38 -63 -45 -74 -7 -10 -33 -55 -59 -99 -26 -44
-61 -102 -79 -130 -18 -27 -67 -106 -108 -175 -72 -120 -155 -256 -247 -405
-121 -196 -115 -184 -94 -205 53 -52 255 -100 421 -100 76 0 71 -5 200 225 52
94 107 190 122 215 81 138 82 211 6 550 -43 194 -57 242 -72 247 -6 2 -27 -20
-45 -49z"/>
<path d="M4050 1470 c0 -5 5 -10 11 -10 5 0 7 5 4 10 -3 6 -8 10 -11 10 -2 0
-4 -4 -4 -10z"/>
<path d="M4120 1411 c25 -22 51 -41 58 -41 7 0 20 -9 30 -21 9 -11 32 -27 51
-35 40 -17 41 -17 41 -3 0 5 -19 19 -42 30 -53 25 -112 59 -136 80 -41 35 -43
27 -2 -10z"/>
<path d="M4556 1142 c-12 -11 -5 -20 27 -32 17 -7 55 -23 82 -36 69 -31 112
-41 63 -14 -21 11 -38 26 -38 33 0 19 -121 63 -134 49z"/>
<path d="M4857 1009 c12 -11 142 -49 167 -48 17 0 15 3 -11 15 -38 16 -167 44
-156 33z"/>
<path d="M7852 2829 c2 -7 10 -15 17 -17 8 -3 12 1 9 9 -2 7 -10 15 -17 17 -8
3 -12 -1 -9 -9z"/>
<path d="M6251 2278 c-29 -91 -89 -255 -106 -288 -21 -42 -29 -90 -13 -90 25
0 151 323 160 411 6 59 -18 40 -41 -33z"/>
<path d="M5951 1646 c-8 -13 -11 -30 -9 -38 3 -8 11 -1 21 19 19 36 20 43 9
43 -5 0 -14 -11 -21 -24z"/>
</g>
</svg>
