<?xml version="1.0" encoding="UTF-8" standalone="no"?>
<!-- Created with Vectornator (http://vectornator.io/) -->

<svg
   height="100%"
   stroke-miterlimit="10"
   style="fill-rule:nonzero;clip-rule:evenodd;stroke-linecap:round;stroke-linejoin:round;"
   version="1.1"
   viewBox="0 0 1100 250"
   width="100%"
   xml:space="preserve"
   id="svg51"
   sodipodi:docname="click_hover_reverse3.svg"
   inkscape:version="1.3 (0e150ed, 2023-07-21)"
   inkscape:export-filename="click_hover_reverse3.svg"
   inkscape:export-xdpi="96"
   inkscape:export-ydpi="96"
   xmlns:inkscape="http://www.inkscape.org/namespaces/inkscape"
   xmlns:sodipodi="http://sodipodi.sourceforge.net/DTD/sodipodi-0.dtd"
   xmlns="http://www.w3.org/2000/svg"
   xmlns:svg="http://www.w3.org/2000/svg"
   xmlns:vectornator="http://vectornator.io"><sodipodi:namedview
   id="namedview51"
   pagecolor="#505050"
   bordercolor="#eeeeee"
   borderopacity="1"
   inkscape:showpageshadow="0"
   inkscape:pageopacity="0"
   inkscape:pagecheckerboard="0"
   inkscape:deskcolor="#505050"
   inkscape:zoom="0.65235828"
   inkscape:cx="567.93945"
   inkscape:cy="198.51055"
   inkscape:window-width="1440"
   inkscape:window-height="778"
   inkscape:window-x="0"
   inkscape:window-y="25"
   inkscape:window-maximized="0"
   inkscape:current-layer="svg51" />&#10;<defs
   id="defs1" />&#10;<g
   id="Layer-1"
   vectornator:layerName="Layer 1"
   style="fill:none;stroke:#ffffff;stroke-opacity:1"
   transform="matrix(1.0417183,0,0,1.0831691,-22.87752,-10.396139)">&#10;<path
   d="m 25,12.5 h 1050 v 225 H 25 Z"
   fill="none"
   opacity="1"
   stroke="#adadad"
   stroke-linecap="butt"
   stroke-linejoin="round"
   stroke-opacity="0.575142"
   stroke-width="5"
   vectornator:layerName="Rectangle 1"
   id="path1"
   style="fill:none;stroke:#ffffff;stroke-opacity:1" />&#10;</g>&#10;<clipPath
   id="ArtboardFrame">&#10;<rect
   height="250"
   width="1100"
   x="0"
   y="0"
   id="rect1" />&#10;</clipPath>&#10;&#10;<text
   xml:space="preserve"
   style="font-style:normal;font-variant:normal;font-weight:normal;font-stretch:normal;font-size:133.333px;line-height:1;font-family:'Lazenby Computer';-inkscape-font-specification:'Lazenby Computer';text-align:center;letter-spacing:0.24px;word-spacing:0.1px;writing-mode:lr-tb;text-anchor:middle;fill:#ffffff;fill-opacity:1;stroke:none;stroke-width:21"
   x="-555.18488"
   y="-65.966385"
   id="text51"
   transform="scale(-1)"><tspan
     sodipodi:role="line"
     id="tspan51"
     x="-555.18488"
     y="-65.966385"
     style="font-style:normal;font-variant:normal;font-weight:normal;font-stretch:normal;font-size:133.333px;font-family:'Lazenby Computer';-inkscape-font-specification:'Lazenby Computer';letter-spacing:0.24px;word-spacing:0.1px;fill:#ffffff;fill-opacity:1" /></text><text
   xml:space="preserve"
   style="font-style:normal;font-variant:normal;font-weight:normal;font-stretch:normal;font-size:133.333px;line-height:1;font-family:'Lazenby Computer';-inkscape-font-specification:'Lazenby Computer';text-align:center;letter-spacing:0.24px;word-spacing:0.1px;text-anchor:middle;white-space:pre;inline-size:197.788;fill:#ffffff;fill-opacity:0;stroke:#ffffff;stroke-width:0.755906;stroke-linecap:round"
   x="640.11383"
   y="116.87472"
   id="text1" /><path
   style="font-size:192px;line-height:1;font-family:'Lazenby Computer';-inkscape-font-specification:'Lazenby Computer';text-align:center;letter-spacing:0.39px;word-spacing:0.1px;text-anchor:middle;fill:#ffffff;stroke:#ffffff;stroke-width:0.755906"
   d="m -920.92058,-182.15304 q 0,-8.64 0.384,-13.248 0.384,-4.8 2.496,-6.912 2.112,-2.112 6.72,-2.496 4.8,-0.384 13.44,-0.384 h 42.24 q 8.64,0 13.248,0.384 4.8,0.384 6.912,2.496 2.112,2.112 2.496,6.912 0.384,4.608 0.384,13.248 v 7.68 q 0,8.64 -0.384,13.44 -0.192,4.608 -2.304,6.72 -1.92,2.112 -6.336,2.496 -4.224,0.384 -12.096,0.384 -4.416,0 -7.104,-0.384 -2.496,-0.576 -4.032,-1.92 -1.344,-1.536 -1.92,-4.032 -0.384,-2.688 -0.384,-7.104 v 0.192 q 0,-9.408 -0.384,-14.4 -0.192,-5.184 -2.112,-7.488 -1.728,-2.496 -5.76,-2.88 -3.84,-0.384 -10.944,-0.384 -7.296,0 -11.136,0.384 -3.84,0.384 -5.76,3.072 -1.728,2.496 -2.112,8.064 -0.192,5.376 -0.192,15.36 v 76.8 q 0,10.176 0.384,15.552 0.384,5.376 2.88,8.064 2.688,2.496 8.064,2.88 5.376,0.384 15.552,0.384 h 3.84 q 9.984,0 15.36,-0.384 5.568,-0.384 8.064,-2.88 2.688,-2.688 3.072,-8.064 0.384,-5.376 0.384,-15.552 0,-4.032 0.192,-6.336 0.384,-2.304 1.152,-3.456 0.768,-1.152 2.112,-1.344 1.536,-0.384 4.032,-0.384 2.496,0 4.032,0.384 1.728,0.192 2.496,1.344 0.768,1.152 0.96,3.456 0.384,2.304 0.384,6.336 v 19.2 q 0,8.64 -0.384,13.44 -0.384,4.608 -2.496,6.72 -2.112,2.112 -6.912,2.496 -4.608,0.384 -13.248,0.384 h -42.24 q -8.64,0 -13.44,-0.384 -4.608,-0.384 -6.72,-2.496 -2.112,-2.112 -2.496,-6.72 -0.384,-4.8 -0.384,-13.44 z m 196.71957,138.24 q -8.64,0 -13.44,-0.384 -4.608,-0.384 -6.72,-2.496 -2.112,-2.112 -2.496,-6.72 -0.384,-4.8 -0.384,-13.44 v -38.4 q 0,-3.648 0.768,-5.76 0.768,-2.304 1.92,-3.648 1.344,-1.536 3.072,-2.304 1.728,-0.96 3.84,-1.728 1.92,-0.768 3.648,-1.536 1.92,-0.768 3.072,-2.112 1.344,-1.536 2.112,-3.84 0.768,-2.304 0.768,-5.952 v -61.44 q 0,-4.032 0.192,-6.336 0.384,-2.304 1.152,-3.456 0.768,-1.152 2.304,-1.344 1.536,-0.384 4.032,-0.384 2.496,0 4.032,0.384 1.536,0.192 2.304,1.344 0.768,1.152 0.96,3.456 0.384,2.304 0.384,6.336 v 107.52 q 0,10.176 0.384,15.552 0.384,5.376 2.88,8.064 2.688,2.496 8.064,2.88 5.376,0.384 15.552,0.384 h 11.52 q 4.032,0 6.336,0.384 2.304,0.192 3.456,1.152 1.152,0.768 1.344,2.304 0.384,1.536 0.384,4.224 0,2.304 -0.384,3.84 -0.192,1.344 -1.344,2.112 -1.152,0.768 -3.456,1.152 -2.304,0.192 -6.336,0.192 z m 144.87943,-61.44 q 0,-3.648 0.768,-5.76 0.768,-2.304 1.92,-3.648 1.344,-1.536 3.072,-2.304 1.728,-0.96 3.84,-1.728 1.92,-0.768 3.648,-1.536 1.92,-0.768 3.072,-2.112 1.344,-1.536 2.112,-3.84 0.768,-2.304 0.768,-5.952 v -61.44 q 0,-4.032 0.192,-6.336 0.384,-2.304 1.152,-3.456 0.768,-1.152 2.304,-1.344 1.536,-0.384 4.032,-0.384 2.496,0 4.032,0.384 1.536,0.384 2.304,1.536 0.768,1.152 0.96,3.456 0.384,2.304 0.384,6.144 v 126.72 q 0,8.64 -0.384,13.44 -0.192,4.608 -1.92,6.72 -1.536,2.112 -4.992,2.496 -3.456,0.384 -9.984,0.384 -6.528,0 -9.984,-0.384 -3.456,-0.384 -5.184,-2.496 -1.536,-2.112 -1.92,-6.72 -0.192,-4.8 -0.192,-13.44 z m 119.91944,-76.8 q 0,-8.64 0.384,-13.248 0.384,-4.8 2.496,-6.912 2.112,-2.112 6.72,-2.496 4.8,-0.384 13.44,-0.384 h 42.24 q 8.64,0 13.248,0.384 4.8,0.384 6.912,2.496 2.112,2.112 2.496,6.912 0.384,4.608 0.384,13.248 v 7.68 q 0,8.64 -0.384,13.44 -0.192,4.608 -2.304,6.72 -1.92,2.112 -6.336,2.496 -4.224,0.384 -12.096,0.384 -4.416,0 -7.104,-0.384 -2.496,-0.576 -4.032,-1.92 -1.344,-1.536 -1.92,-4.032 -0.384,-2.688 -0.384,-7.104 v 0.192 q 0,-9.408 -0.384,-14.4 -0.192,-5.184 -2.112,-7.488 -1.728,-2.496 -5.76,-2.88 -3.84,-0.384 -10.944,-0.384 -7.296,0 -11.136,0.384 -3.84,0.384 -5.76,3.072 -1.728,2.496 -2.112,8.064 -0.192,5.376 -0.192,15.36 v 76.8 q 0,10.176 0.384,15.552 0.384,5.376 2.88,8.064 2.688,2.496 8.064,2.88 5.376,0.384 15.552,0.384 h 3.84 q 9.984,0 15.36,-0.384 5.568,-0.384 8.064,-2.88 2.688,-2.688 3.072,-8.064 0.384,-5.376 0.384,-15.552 0,-4.032 0.192,-6.336 0.384,-2.304 1.152,-3.456 0.768,-1.152 2.112,-1.344 1.536,-0.384 4.032,-0.384 2.496,0 4.032,0.384 1.728,0.192 2.496,1.344 0.768,1.152 0.96,3.456 0.384,2.304 0.384,6.336 v 19.2 q 0,8.64 -0.384,13.44 -0.384,4.608 -2.496,6.72 -2.112,2.112 -6.912,2.496 -4.608,0.384 -13.248,0.384 h -42.24 q -8.64,0 -13.44,-0.384 -4.608,-0.384 -6.72,-2.496 -2.112,-2.112 -2.496,-6.72 -0.384,-4.8 -0.384,-13.44 z m 248.55956,92.16 q 0,-9.984 -0.384,-15.36 -0.192,-5.568 -2.112,-8.064 -1.92,-2.688 -6.144,-3.072 -4.032,-0.384 -11.52,-0.384 -7.488,0 -11.712,0.384 -4.032,0.384 -5.952,3.072 -1.92,2.496 -2.304,8.064 -0.192,5.376 -0.192,15.36 v 23.04 q 0,8.64 -0.384,13.44 -0.192,4.608 -1.92,6.72 -1.536,2.112 -4.992,2.496 -3.456,0.384 -9.984,0.384 -6.528,0 -9.984,-0.384 -3.456,-0.384 -5.184,-2.496 -1.536,-2.112 -1.92,-6.72 -0.192,-4.8 -0.192,-13.44 v -126.72 q 0,-4.032 0.192,-6.336 0.384,-2.304 1.152,-3.456 0.768,-1.152 2.304,-1.344 1.536,-0.384 4.032,-0.384 2.496,0 4.032,0.384 1.536,0.384 2.304,1.536 0.768,1.152 0.96,3.456 0.384,2.304 0.384,6.144 v 46.08 q 0,7.296 3.456,8.448 3.456,0.96 9.216,-4.608 l 56.448,-53.952 q 2.112,-1.92 3.648,-3.264 1.728,-1.536 3.456,-2.304 1.92,-0.768 4.032,-1.152 2.304,-0.384 5.568,-0.384 4.416,0 5.76,1.344 1.536,1.152 1.536,2.688 0,2.304 -3.648,5.952 l -53.568,51.072 q -6.144,5.76 -5.76,8.64 0.384,2.88 9.216,2.88 h 31.68 q 8.64,0 13.248,0.384 4.8,0.384 6.912,2.496 2.112,2.112 2.496,6.912 0.384,4.608 0.384,13.248 v 42.24 q 0,8.64 -0.384,13.44 -0.192,4.608 -1.92,6.72 -1.536,2.112 -4.992,2.496 -3.456,0.384 -9.984,0.384 -6.528,0 -9.984,-0.384 -3.456,-0.384 -5.184,-2.496 -1.536,-2.112 -1.92,-6.72 -0.192,-4.8 -0.192,-13.44 z"
   id="text2"
   transform="scale(-1)"
   aria-label="C L I C K" /></svg>
