<?xml version="1.0" encoding="UTF-8" standalone="no"?>
<!DOCTYPE svg PUBLIC "-//W3C//DTD SVG 1.1//EN" "http://www.w3.org/Graphics/SVG/1.1/DTD/svg11.dtd">
<!-- Created with Vectornator (http://vectornator.io/) -->
<svg height="100%" stroke-miterlimit="10" style="fill-rule:nonzero;clip-rule:evenodd;stroke-linecap:round;stroke-linejoin:round;" version="1.1" viewBox="0 0 512 512" width="100%" xml:space="preserve" xmlns="http://www.w3.org/2000/svg" xmlns:vectornator="http://vectornator.io" xmlns:xlink="http://www.w3.org/1999/xlink">
<defs/>
<clipPath id="ArtboardFrame">
<rect height="512" width="512" x="0" y="0"/>
</clipPath>
<g clip-path="url(#ArtboardFrame)" id="Layer-1" vectornator:layerName="Layer 1">
<path d="M20.5011 20.7711L20.5011 488.823L489.063 489.333L490.593 21.281L20.5011 20.7711Z" fill="none" opacity="1" stroke="#ffffff" stroke-linecap="round" stroke-linejoin="round" stroke-width="12.0068" vectornator:layerName="Curve 1"/>
<path d="M57.7482 62.4202L58.7406 99.2706L199.997 251.228L256 301.203L399.457 439.877L438.587 439.877L438.587 400.933L300.139 251.228L254.527 199.001L101.504 60.5403L57.7482 62.4202Z" fill="#ffffff" fill-rule="nonzero" opacity="1" stroke="#ffffff" stroke-linecap="round" stroke-linejoin="round" stroke-width="12.0068" vectornator:layerName="Curve 2"/>
<path d="M438.587 60.5403L438.587 99.2706L300.139 251.228L254.527 199.001L399.457 61.3825L438.587 60.5403Z" fill="#ffffff" fill-rule="nonzero" opacity="1" stroke="#ffffff" stroke-linecap="round" stroke-linejoin="round" stroke-width="12.0068" vectornator:layerName="Curve 4"/>
<path d="M101.504 439.877L254.527 301.203L199.997 250.63L59.2778 400.933L59.2778 439.877L101.504 439.877Z" fill="#ffffff" fill-rule="nonzero" opacity="1" stroke="#ffffff" stroke-linecap="round" stroke-linejoin="round" stroke-width="12.0068" vectornator:layerName="Curve 5"/>
<path d="M59.2778 490.364L70.594 503.377L424.291 503.027L435.751 490.454" fill="none" opacity="1" stroke="#ffffff" stroke-linecap="round" stroke-linejoin="round" stroke-width="12.0068" vectornator:layerName="Curve 6"/>
<path d="M442.762 20.1377L431.506 7.0721L77.8112 5.78006L66.2928 18.2998" fill="none" opacity="1" stroke="#ffffff" stroke-linecap="round" stroke-linejoin="round" stroke-width="12.0068" vectornator:layerName="Curve 8"/>
<path d="M18.4436 61.3825L5.14715 72.7109L5.7347 426.408L18.5959 437.856" fill="none" opacity="1" stroke="#ffffff" stroke-linecap="round" stroke-linejoin="round" stroke-width="12.0068" vectornator:layerName="Curve 10"/>
<path d="M490.593 437.006L503.968 425.768L505.85 72.0756L493.069 60.5403" fill="none" opacity="1" stroke="#ffffff" stroke-linecap="round" stroke-linejoin="round" stroke-width="12.0068" vectornator:layerName="Curve 12"/>
</g>
</svg>
